PathFileType	4	(x/y/z)	S08_PSF_T14
DataRate	CameraRate	NumFrames	NumMarkers	Units	OrigDataRate	OrigDataStartFrame	OrigNumFrames
240	240	5	51	mm	240	209	417
Frame#	Time	Sternum			R.Acromium			L.Acromium			Top.Head			R.ASIS			L.ASIS			R.PSIS			L.PSIS			R.Great.Tro			L.Great.Tro			R.Iliac.Crest			L.Iliac.Crest			V.Sacral			R.Thigh.Upper.Post			R.Thigh.Lower.Ant			R.Thigh.Lower.Post			R.Thigh.Upper.Ant			R.Knee.Lat			R.Knee.Med			R.Shank.Upper.Post			R.Shank.Lower.Ant			R.Shank.Lower.Post			R.Shank.Upper.Ant			R.Ankle.Lat			R.Ankle.Med			R.Heel.Upper			R.Heel.Med			R.Heel.Lat			R.Toe.Lat			R.Toe.Med			R.Toe.Tip			L.Thigh.Upper.Post			L.Thigh.Lower.Ant			L.Thigh.Lower.Post			L.Thigh.Upper.Ant			L.Knee.Lat			L.Knee.Med			L.Shank.Upper.Post			L.Shank.Lower.Ant			L.Shank.Lower.Post			L.Shank.Upper.Ant			L.Ankle.Lat			L.Ankle.Med			L.Heel.Upper			L.Heel.Med			L.Heel.Lat			L.Toe.Lat			L.Toe.Med			L.Toe.Tip			Cervical.Spine			Back			
		X1	Y1	Z1	X2	Y2	Z2	X3	Y3	Z3	X4	Y4	Z4	X5	Y5	Z5	X6	Y6	Z6	X7	Y7	Z7	X8	Y8	Z8	X9	Y9	Z9	X10	Y10	Z10	X11	Y11	Z11	X12	Y12	Z12	X13	Y13	Z13	X14	Y14	Z14	X15	Y15	Z15	X16	Y16	Z16	X17	Y17	Z17	X18	Y18	Z18	X19	Y19	Z19	X20	Y20	Z20	X21	Y21	Z21	X22	Y22	Z22	X23	Y23	Z23	X24	Y24	Z24	X25	Y25	Z25	X26	Y26	Z26	X27	Y27	Z27	X28	Y28	Z28	X29	Y29	Z29	X30	Y30	Z30	X31	Y31	Z31	X32	Y32	Z32	X33	Y33	Z33	X34	Y34	Z34	X35	Y35	Z35	X36	Y36	Z36	X37	Y37	Z37	X38	Y38	Z38	X39	Y39	Z39	X40	Y40	Z40	X41	Y41	Z41	X42	Y42	Z42	X43	Y43	Z43	X44	Y44	Z44	X45	Y45	Z45	X46	Y46	Z46	X47	Y47	Z47	X48	Y48	Z48	X49	Y49	Z49	X50	Y50	Z50	X51	Y51	Z51	

209	0.86667	-342.47	1239	328.25	-444.17	1477.2	510.97	-477.61	1506.8	178.37	-450.08	1792.1	362.2	-364.81	1025.4	442.64	-369.43	1026.5	210.91	-567.93	1048.9	367.82	-566.02	1051.2	274.71	-436.35	917.74	512.19	-451.41	916.93	143.08	-459.22	1095.3	486.93	-463.9	1106.4	180.92	-583.59	1009.3	321.47	-470.38	720.25	493.21	-400.53	618.45	454.6	-469.78	631.32	472.37	-392.81	710.64	477.53	-444.55	521.38	443.04	-472.22	530.53	318.04	-530.42	342.95	443.16	-474.41	276.78	419.54	-538.16	267.04	431.66	-467.16	353.17	431.72	-551.26	99.109	385.94	-522.39	118.59	310.32	-600.13	67.429	335.63	-589.22	41.138	308.42	-595.92	43.807	370.13	NaN	NaN	NaN	-402.54	46.077	301.92	-337.89	61.325	350.63	-372.32	715.53	152.75	-256.35	667.6	169.35	-320.72	641.06	167.34	-304.23	741.23	149.52	-273.88	557.12	182.76	-260.35	552.37	308.72	-388	421.12	177.94	-361.73	313.03	190.5	-420.03	355.27	190.29	-334.32	383.67	178.85	-473.23	190.15	195.32	-445.4	182.78	277.83	-532.33	184.64	246.47	-532.84	147.24	274.94	-538.41	158.58	211.89	-385.05	77.155	168.77	-360.22	68.818	279.88	-297.45	62.888	228.85	-525.08	1534.3	344.45	-575.33	1252.2	352.94
210	0.87083	-337.36	1238.6	328.53	-438.97	1477	511.1	-472.35	1506.4	178.44	-444.8	1791.8	362.17	-360.06	1024.9	442.91	-364.39	1026.3	211.17	-563.03	1048.7	367.79	-561.04	1051	274.64	-432.01	917.37	512.26	-446.15	916.94	143.08	-454.44	1094.9	487.04	-458.76	1106.3	181.05	-578.62	1009.1	321.29	-467.34	720.21	493.18	-398.22	617.96	454.43	-467.3	631.28	472.28	-389.81	710.11	477.57	-442.8	521.13	443.02	-470.39	530.46	318	-529.4	343.05	443.11	-473.62	276.75	419.55	-537.38	267.17	431.58	-466.11	353.08	431.72	-551.05	99.31	385.76	-522.24	118.65	310.13	-600.11	67.521	335.51	-589.14	41.16	308.38	-595.87	43.932	370.05	NaN	NaN	NaN	-402.46	45.894	301.84	-337.76	61.03	350.6	-366.23	715.79	152.83	-250.11	668.3	169.82	-314.37	641.53	167.53	-298.23	741.77	149.81	-267.14	557.54	183.21	-254.02	553.01	309.03	-378.65	418.76	178.25	-349.91	311.28	190.88	-409.14	352.2	190.66	-324.12	382.53	179.2	-458.56	185.84	195.67	-430.33	179.03	278.2	-517.47	178.76	246.9	-516.97	141.31	275.35	-522.9	152.51	212.34	-367.47	75.111	168.97	-342.26	67.357	280.06	-279.42	63.05	228.94	-519.82	1534	344.53	-570.18	1252	353.06
211	0.875	-332.24	1238.2	328.81	-433.77	1476.7	511.23	-467.07	1506	178.5	-439.53	1791.5	362.13	-355.29	1024.4	443.15	-359.34	1026	211.4	-558.12	1048.5	367.75	-556.06	1050.8	274.57	-427.66	916.97	512.32	-440.9	916.89	143.1	-449.64	1094.5	487.15	-453.64	1106.1	181.18	-573.65	1008.9	321.13	-464.3	720.17	493.13	-395.89	617.45	454.26	-464.81	631.23	472.17	-386.81	709.56	477.6	-441.03	520.87	443.01	-468.55	530.39	317.96	-528.39	343.15	443.06	-472.85	276.72	419.56	-536.61	267.3	431.5	-465.06	352.99	431.73	-550.84	99.511	385.59	-522.05	118.72	309.95	-600.1	67.622	335.39	-589.05	41.183	308.36	-595.82	44.055	369.97	NaN	NaN	NaN	-402.36	45.725	301.77	-337.63	60.745	350.57	-360.25	715.98	152.93	-244	668.88	170.27	-308.16	641.9	167.74	-292.32	742.2	150.11	-260.55	557.86	183.63	-247.81	553.52	309.32	-369.32	416.32	178.56	-338.1	309.51	191.27	-398.24	349.06	191.03	-313.97	381.35	179.54	-443.79	181.54	196.02	-415.15	175.32	278.58	-502.44	172.89	247.34	-500.91	135.44	275.78	-507.22	146.47	212.82	-349.85	73.134	169.2	-324.26	66	280.28	-261.42	63.297	229.05	-514.55	1533.7	344.59	-565.04	1251.7	353.18
212	0.87917	-327.12	1237.7	329.08	-428.56	1476.4	511.36	-461.77	1505.5	178.56	-434.25	1791.1	362.08	-350.51	1023.9	443.37	-354.29	1025.7	211.62	-553.21	1048.2	367.72	-551.07	1050.6	274.51	-423.29	916.55	512.38	-435.66	916.8	143.11	-444.81	1094	487.25	-448.53	1105.8	181.31	-568.67	1008.6	320.97	-461.25	720.11	493.08	-393.55	616.94	454.09	-462.31	631.16	472.06	-383.81	709	477.62	-439.24	520.61	442.99	-466.68	530.3	317.92	-527.38	343.26	442.99	-472.09	276.67	419.55	-535.84	267.43	431.42	-464.01	352.89	431.74	-550.63	99.71	385.41	-521.82	118.78	309.77	-600.09	67.731	335.27	-588.92	41.205	308.33	-595.77	44.173	369.89	NaN	NaN	NaN	-402.24	45.573	301.72	-337.5	60.469	350.55	-354.37	716.09	153.05	-238	669.33	170.72	-302.07	642.18	167.95	-286.51	742.53	150.41	-254.09	558.06	184.04	-241.72	553.91	309.61	-360.01	413.79	178.86	-326.3	307.74	191.65	-387.32	345.86	191.39	-303.85	380.11	179.88	-428.92	177.27	196.38	-399.88	171.66	278.98	-487.24	167.06	247.79	-484.67	129.65	276.23	-491.38	140.49	213.32	-332.2	71.241	169.45	-306.25	64.761	280.52	-243.45	63.646	229.18	-509.27	1533.4	344.66	-559.9	1251.4	353.29
213	0.88333	-321.99	1237.2	329.34	-423.34	1476.1	511.48	-456.45	1505	178.62	-428.98	1790.7	362.01	-345.72	1023.3	443.57	-349.24	1025.4	211.81	-548.28	1047.9	367.68	-546.07	1050.3	274.45	-418.92	916.12	512.44	-430.44	916.65	143.13	-439.97	1093.6	487.34	-443.43	1105.6	181.42	-563.69	1008.3	320.82	-458.19	720.03	493.02	-391.19	616.42	453.93	-459.8	631.09	471.94	-380.81	708.44	477.64	-437.44	520.34	442.99	-464.78	530.21	317.88	-526.39	343.37	442.93	-471.35	276.61	419.53	-535.09	267.57	431.34	-462.97	352.79	431.75	-550.43	99.909	385.24	-521.57	118.85	309.6	-600.09	67.846	335.15	-588.78	41.229	308.31	-595.72	44.288	369.81	NaN	NaN	NaN	-402.11	45.438	301.67	-337.37	60.204	350.55	-348.6	716.12	153.18	-232.13	669.65	171.15	-296.12	642.36	168.17	-280.79	742.74	150.71	-247.77	558.16	184.43	-235.76	554.17	309.9	-350.73	411.18	179.16	-314.51	305.96	192.03	-376.39	342.62	191.75	-293.78	378.84	180.22	-413.93	173.05	196.74	-384.53	168.05	279.4	-471.88	161.27	248.25	-468.26	123.95	276.7	-475.37	134.57	213.83	-314.53	69.445	169.72	-288.23	63.655	280.79	-225.52	64.111	229.33	-503.98	1533	344.71	-554.77	1251	353.39
